<svg xmlns="http://www.w3.org/2000/svg" viewBox="0 0 512 512" width="512" height="512"><path d="M236.333 216.824h-52.198c-5.523 0-10 4.477-10 10v53.385c0 5.523 4.477 10 10 10h52.198c5.523 0 10-4.477 10-10v-53.385c0-5.523-4.477-10-10-10zm-10 53.385h-32.198v-33.385h32.198v33.385zm101.533-53.385h-52.198c-5.523 0-10 4.477-10 10v53.385c0 5.523 4.477 10 10 10h52.198c5.523 0 10-4.477 10-10v-53.385c0-5.523-4.477-10-10-10zm-10 53.385h-32.198v-33.385h32.198v33.385zm-81.533-151.676h-52.198c-5.523 0-10 4.477-10 10v53.385c0 5.523 4.477 10 10 10h52.198c5.523 0 10-4.477 10-10v-53.385c0-5.523-4.477-10-10-10zm-10 53.385h-32.198v-33.385h32.198v33.385zm101.533-53.385h-52.198c-5.523 0-10 4.477-10 10v53.385c0 5.523 4.477 10 10 10h52.198c5.523 0 10-4.477 10-10v-53.385c0-5.523-4.477-10-10-10zm-10 53.385h-32.198v-33.385h32.198v33.385zm89.254 46.251c-.13-.63-.32-1.26-.57-1.87-.25-.6-.56-1.18-.92-1.72a9.57 9.57 0 0 0-1.24-1.52c-.46-.46-.97-.88-1.52-1.25a10.098 10.098 0 0 0-3.6-1.491 9.898 9.898 0 0 0-3.91 0c-.63.13-1.26.32-1.87.57-.6.25-1.18.56-1.72.921-.55.37-1.06.79-1.52 1.25-.46.46-.88.97-1.25 1.52-.36.54-.67 1.12-.92 1.72-.25.61-.44 1.24-.57 1.87-.13.65-.19 1.31-.19 1.96a9.84 9.84 0 0 0 .76 3.82 9.87 9.87 0 0 0 2.17 3.25c.46.46.97.88 1.52 1.24.54.36 1.12.67 1.72.92.61.25 1.24.44 1.87.57.65.13 1.31.2 1.96.2a10.098 10.098 0 0 0 5.55-1.69 9.57 9.57 0 0 0 1.52-1.24c.46-.46.88-.97 1.24-1.52.36-.54.67-1.12.92-1.73a10.098 10.098 0 0 0 .77-3.82c0-.65-.07-1.31-.2-1.96zm-282.63 0c-.13-.63-.32-1.26-.57-1.87-.25-.6-.56-1.18-.92-1.72a9.63 9.63 0 0 0-1.25-1.52c-.46-.46-.97-.88-1.52-1.25a10.15 10.15 0 0 0-1.72-.921c-.61-.25-1.24-.44-1.87-.57-3.25-.65-6.7.41-9.03 2.74-.46.46-.88.97-1.24 1.52-.36.54-.67 1.12-.92 1.72-.25.61-.44 1.24-.57 1.87-.13.65-.2 1.31-.2 1.96s.07 1.31.2 1.95a10.138 10.138 0 0 0 2.73 5.121c1.86 1.86 4.44 2.93 7.07 2.93.65 0 1.31-.07 1.96-.2.63-.13 1.26-.32 1.87-.57.6-.25 1.18-.56 1.72-.92a9.57 9.57 0 0 0 1.52-1.24 9.87 9.87 0 0 0 2.17-3.25 9.84 9.84 0 0 0 .76-3.82c0-.65-.06-1.31-.19-1.96z" fill="#FFF"/><path d="M506.378 414.762l-33.867-34.492a10.004 10.004 0 0 0-7.133-2.994h-.002a10.004 10.004 0 0 0-7.132 2.99l-14.41 14.661V161.226c0-5.523-4.477-10-10-10h-62.601V88.419c0-3.152-1.487-6.12-4.011-8.008L262.358 1.991a10.002 10.002 0 0 0-11.951-.02l-105.601 78.42a9.997 9.997 0 0 0-4.038 8.028v62.807h-62.6c-5.523 0-10 4.477-10 10v233.716L53.761 380.27a10 10 0 0 0-14.27 0L5.623 414.761a10.001 10.001 0 0 0-2.865 7.006V502c0 5.523 4.477 10 10 10h486.485c5.523 0 10-4.477 10-10v-80.232a10 10 0 0 0-2.865-7.006zM70.494 492H22.758v-66.144l23.868-24.308 23.868 24.308V492zm67.829 0h-47.83v-66.116l24.132-24.345 23.698 24.298V492zm2.446-92.301l-16.085-16.492V247.394c0-5.523-4.477-10-10-10s-10 4.477-10 10v135.765l-16.516 16.662V171.226h52.601v228.473zM206.06 492h-47.736v-66.143l23.868-24.308 23.868 24.308V492zm79.882 0h-59.883v-56.821h59.883V492zm2.478-76.822h-64.838a10.155 10.155 0 0 0-.387-.417l-21.669-22.069h34.808c5.523 0 10-4.477 10-10v-53.386c0-5.523-4.477-10-10-10h-52.198c-5.523 0-10 4.477-10 10v51.901l-10.353 10.544-3.014 3.07V93.449h-.001l95.58-70.978 94.885 70.957v301.393l-3.014-3.07-10.353-10.544v-51.901c0-5.523-4.477-10-10-10h-52.198c-5.523 0-10 4.477-10 10v53.386c0 5.523 4.477 10 10 10h34.808l-21.669 22.069c-.133.136-.263.275-.387.417zm-94.285-42.486v-33.386h32.198v33.386h-32.198zm123.731-33.386v33.386h-32.198v-33.386h32.198zM353.678 492h-47.736v-66.144l23.868-24.308 23.868 24.308V492zm67.796 0h-47.796v-66.163l23.694-24.294 24.102 24.339V492zm2.36-92.16l-16.516-16.678V247.193c0-5.523-4.477-10-10-10s-10 4.477-10 10v136.013l-16.085 16.492V171.226h52.601V399.84zM441.473 492v-66.14l23.898-24.314 23.871 24.311V492h-47.769z" fill="#FFF"/></svg>