<svg xmlns="http://www.w3.org/2000/svg" viewBox="0 0 512 512" width="512" height="512"><path fill="#FFF" d="M74.016 44.136l-7.791 7.792-7.873-7.874-11.101 11.1 18.974 18.973 18.892-18.893zm371.427 53.172l-7.792 7.794-7.872-7.873-11.1 11.098 18.972 18.973 18.893-18.891zM238.079 437.955l-7.793 7.792-7.872-7.873-11.1 11.098 18.972 18.974 18.891-18.891zm39.638-389.489c-9.305 0-16.152 3.728-21.756 8.239-5.903-4.799-12.359-8.239-21.723-8.239-17.656 0-32.021 14.532-32.021 32.393 0 8.109 2.456 13.078 4.08 16.367l.097.198c6.625 13.419 38.294 40.063 44.575 45.268l4.995 4.14 5.005-4.126c6.341-5.227 38.288-31.981 44.644-45.396l.166-.351c1.596-3.358 4.008-8.435 4.008-16.1.003-17.86-14.385-32.393-32.07-32.393zm13.887 41.756l-.175.369c-3.338 7.045-21.79 24.169-35.439 35.804-13.578-11.632-31.99-28.77-35.518-35.919l-.102-.204c-1.318-2.666-2.456-4.97-2.456-9.412 0-9.362 7.17-16.696 16.324-16.696 6.346 0 10.027 2.807 16.365 8.763l5.437 5.111 5.379-5.173c5.999-5.771 10.169-8.7 16.298-8.7 9.182 0 16.375 7.335 16.375 16.696.001 4.126-1.208 6.669-2.488 9.361zM144.937 195.104l14.412-2.807 3.002 15.408-14.413 2.807z"/><path d="M222.27 227.041l31.229-58.973-55.575 12.165c-4.03-3.536-11.5-9.319-21.474-13.694-20.374-8.94-41.503-7.89-61.104 3.036-45.511 25.367-28.127 97.552-21.814 118.841-31.691 19.656-81.586 27.22-82.104 27.296L0 317.398l5.778 10.005c.379.656 9.475 16.219 26.505 29.314 20.349 15.645 43.371 21.177 67.151 16.235-4.295 39.73-35.358 63.969-35.686 64.22l-21.925 16.634 27.401-2.566c4.241-.398 104.352-10.209 146.598-51.834 30.091-29.651 40.222-69.75 29.297-115.965-6.299-26.645-17.776-47.861-22.849-56.4zm-17.465 161.182c-26.862 26.467-83.072 39.083-114.521 44.281 11.215-13.876 24.025-35.755 25.242-64.216 8.412-3.112 23.125-9.791 38.103-22.473l-10.143-11.979c-12.671 10.727-25.209 16.576-32.488 19.369l-6.897 2.29c-22.097 7.148-42.906 3.475-61.856-10.921-6.826-5.186-12.228-10.921-16.063-15.589 18.845-3.849 54.917-12.951 79.878-29.995l.822-.575c2.521-1.335 13.64-7.467 24.207-17.065l-10.555-11.62c-4.535 4.119-9.25 7.534-13.089 10.059-6.004-22.312-17.175-78.265 15.544-96.503 36.477-20.332 65.651 9.611 66.86 10.877l3.048 3.24 30.886-6.762-19.675 37.155 2.582 3.889c.156.235 15.721 23.922 23.154 55.366 9.732 41.172 1.308 75.211-25.039 101.172zm144.836-180.518l3-15.407 14.412 2.805-3 15.408z" fill="#FFF"/><path d="M500.579 315.714c-.52-.076-50.48-7.65-82.107-27.292 6.313-21.291 23.698-93.478-21.813-118.845-19.599-10.925-40.73-11.974-61.104-3.036-9.99 4.383-17.466 10.176-21.49 13.71l-56.859-12.167 32.487 59.03c-5.094 8.586-16.525 29.76-22.805 56.326-10.924 46.214-.794 86.314 29.297 115.965 42.245 41.624 142.355 51.436 146.597 51.834l27.158 2.535-21.669-16.591c-.339-.261-31.398-24.5-35.696-64.225 23.749 4.941 46.79-.588 67.15-16.24 17.03-13.094 26.126-28.658 26.505-29.314l5.771-9.999-11.422-1.691zm-30.818 28.858c-18.949 14.396-39.763 18.073-61.799 10.939l-6.959-2.31c-7.278-2.794-19.815-8.642-32.483-19.368l-10.143 11.979c14.979 12.684 29.693 19.364 38.104 22.475 1.217 28.467 14.031 50.349 25.248 64.224-31.438-5.189-87.635-17.792-114.527-44.289-26.252-25.869-34.709-59.765-25.137-100.751 7.359-31.511 23.099-55.555 23.254-55.788l2.629-3.96-20.418-37.099 27.271 5.835 4.311.9 3.031-3.179c1.225-1.285 30.399-31.225 66.876-10.894 32.72 18.238 21.548 74.196 15.544 96.503-3.84-2.525-8.554-5.94-13.089-10.06l-10.555 11.62c10.556 9.589 21.663 15.716 24.2 17.06l.897.627c24.911 17.007 60.966 26.1 79.809 29.948-3.838 4.67-9.238 10.403-16.064 15.588z" fill="#FFF"/></svg>