<svg xmlns="http://www.w3.org/2000/svg" width="512" height="512" viewBox="0 0 556.213 556.213"><g fill="#FFF"><path d="M173.684 493.875c39.216 0 75.324-13.225 104.423-35.229 29.108 22.014 65.206 35.229 104.422 35.229 95.778 0 173.685-77.905 173.685-173.674 0-95.778-77.906-173.684-173.685-173.684-39.216 0-75.323 13.225-104.422 35.228-29.108-22.013-65.207-35.228-104.423-35.228C77.906 146.518 0 224.423 0 320.201c0 95.759 77.906 173.674 173.684 173.674zm104.422-243.853c13.53 20.062 21.438 44.217 21.438 70.179s-7.908 50.117-21.438 70.179c-13.531-20.062-21.439-44.217-21.439-70.179s7.918-50.117 21.439-70.179zm104.432-55.692c69.405 0 125.871 56.466 125.871 125.871 0 69.404-56.466 125.861-125.871 125.861-26.029 0-50.241-7.946-70.332-21.534 21.965-29.09 35.161-65.149 35.161-104.327s-13.196-75.248-35.161-104.336c20.091-13.589 44.303-21.535 70.332-21.535zm-208.854 0c26.029 0 50.241 7.946 70.332 21.535-21.965 29.089-35.161 65.159-35.161 104.336s13.196 75.237 35.161 104.327c-20.091 13.588-44.303 21.534-70.332 21.534-69.404 0-125.871-56.457-125.871-125.861-.001-69.405 56.466-125.871 125.871-125.871z"/><path d="M274.75 77.868h-.191s-26.431-28.946-49.496-7.803-2.888 69.854 49.496 90.997l.191.182c52.374-21.143 72.56-70.036 49.495-91.178-23.064-21.144-49.495 7.802-49.495 7.802z"/></g></svg>