<svg xmlns="http://www.w3.org/2000/svg" viewBox="0 0 376 376" width="512" height="512"><g fill="#FFF"><path d="M188 290.208c-4.4 0-8 3.6-8 8v12c0 4.4 3.6 8 8 8s8-3.6 8-8v-12c0-4.4-3.6-8-8-8z"/><path d="M373.2 44.208c-1.6-1.6-4-2.4-6.4-2l-19.2 2.4v-30.4c0-2.8-1.2-5.2-3.6-6.4-2-1.6-4.8-2-7.2-.8l-130.8 48c-6 2-12 3.2-18 3.2s-12.4-1.2-18-3.2L38.8 6.608c-2.4-.8-5.2-.4-7.2.8-2 1.6-3.6 4-3.6 6.4v30.4l-19.2-2c-2.4-.4-4.4.4-6.4 2-1.6 1.6-2.4 3.6-2.4 6v292c0 4 3.2 7.6 7.2 8l173.6 19.2c2.4.4 4.8.4 7.2.4s4.8 0 7.6-.4l173.2-19.2c4-.4 7.2-4 7.2-8v-292c0-2.4-.8-4.4-2.8-6zM16 335.008v-276l12 1.2v246c0 3.2 2 6.4 5.2 7.6l90 33.2-107.2-12zm153.6 12L44 300.608v-274.8l120.4 44.4c5.2 2 10.4 2.8 15.6 3.6v188.4c0 4.4 3.6 8 8 8s8-3.6 8-8v-188.4c5.2-.8 10.4-1.6 15.6-3.6l120.4-44.4v274.8l-126 46.4c-12 4-24.4 4-36.4 0zm190.4-12l-107.2 12 90-33.2c3.2-1.2 5.2-4 5.2-7.6v-245.6l12-1.2v275.6z"/></g></svg>