<svg xmlns="http://www.w3.org/2000/svg" viewBox="0 0 55.48 10.61"><defs><style>.cls-1{fill:#ed9429}.cls-2{fill:#fff}</style></defs><title>logoAsset 8</title><g id="Layer_2" data-name="Layer 2"><g id="Free_Sample" data-name="Free Sample"><path class="cls-1" d="M1 7.66a1.22 1.22 0 0 1-.07-.17c-.1-.29-.19-.58-.3-.88a.74.74 0 0 0 0-.14v-.63a.85.85 0 0 0-.23-.19.31.31 0 0 1 0-.11v-.11a.37.37 0 0 1 0-.11v-.98a.59.59 0 0 0 0-.13v-.08A.28.28 0 0 0 .53 4v-.2a.66.66 0 0 0 0-.15.16.16 0 0 0-.08-.14.13.13 0 0 0-.12.06.36.36 0 0 0-.08.09v.15c0 .08-.08.16-.11.26V5S0 5 0 5.09v.15a3.45 3.45 0 0 0 .1 1.07v.38l.06.15v.08l.2.08.06.15.08.14a1.7 1.7 0 0 0 .33.47h.19v-.09zm10.14-2.18v-.1a.31.31 0 0 1 0-.1v-.57a1.22 1.22 0 0 0 0-.17v-.18a1.62 1.62 0 0 0 0-.19A1.16 1.16 0 0 0 11 4v-.18c0-.06 0-.11-.07-.17s-.06-.14-.08-.2a5.51 5.51 0 0 0-1-1.55l-.15-.14-.06-.07a.43.43 0 0 0 0-.07v-.1l-.06-.08-.11-.15-.15-.15-.1-.09L9 1a6.1 6.1 0 0 0-.59-.4L8.12.4H8V.33L7.87.3h-.33L7.28.12 7 .07h-.86L5.89 0h-.58L5 .09h-.87L4 .33h-.35l-.21.1A3.17 3.17 0 0 1 3 .75a.32.32 0 0 0-.12.08L2.83.9l-.24.16-.11.08-.11.09-.11.1-.26.18v.05l-.11.1a.52.52 0 0 0-.1.11 3.57 3.57 0 0 0-.3.38l-.09.13a2.91 2.91 0 0 0-.48 1v.05c0 .05 0 0 0 0v.21a.09.09 0 0 0 .08.17.47.47 0 0 0 .15-.16v.06S1 3.68 1 3.79.94 3.94.91 4v.24a.79.79 0 0 0 .09.15 4.87 4.87 0 0 0 .13 2.28 3 3 0 0 0 .16.77v.06a1 1 0 0 0 0 .1l.06.1a.41.41 0 0 0 .05.09 1.09 1.09 0 0 0 .17.21l.06.08.07.08.3.29.15.14.15.14h.06l.05.05.1.12a5.22 5.22 0 0 0 .71.7h-.05L3 9.57l-.11-.06-.11-.06-.13-.06-.12-.05-.24-.13H2a1.13 1.13 0 0 0 .11.22l.11.15.06.08.07.07.1.09.11.05h.35L3 10l.17.07.14.05h2.1a6.38 6.38 0 0 0 .87.07h.07c.31-.06.61-.09.91-.15l.18-.05.18-.05.17-.07h.17l.17-.09.08-.05.08.27h.08l.08-.05.16-.11c.2-.14.41-.29.6-.45a3.31 3.31 0 0 0 .27-.26L9.54 9l.11-.15.1-.1a3.25 3.25 0 0 0 .63-.84l.08-.14a1 1 0 0 1 .07-.15v-.15a1 1 0 0 0 .07-.15.25.25 0 0 1 0-.09v-.27c0-.07.05-.13.07-.19l.06-.2a.75.75 0 0 0 0-.16.75.75 0 0 0 0-.16V6a.19.19 0 0 0 0-.08 1.34 1.34 0 0 0 0-.2z"/><path class="cls-2" d="M13.63.29h3.22a5.5 5.5 0 0 1 1.66.24 3.63 3.63 0 0 1 1.32.7 3 3 0 0 1 .88 1.14A3.65 3.65 0 0 1 21 3.93a3.23 3.23 0 0 1-.19 1.19 3.59 3.59 0 0 1-.44.81 2.85 2.85 0 0 1-.63.62l1.75 3.08H18l-1.4-2.37v2.37h-3zm2.91 6.09a5.39 5.39 0 0 0 1.07-.11l1.33 2.24h.43L18 6.15a2.62 2.62 0 0 0 1.21-.81 2.27 2.27 0 0 0 .44-1.44 2.45 2.45 0 0 0-.23-1.08 2.14 2.14 0 0 0-.66-.77 2.94 2.94 0 0 0-1-.48 4.29 4.29 0 0 0-1.22-.16H15v7.1h.37V6.38zM15.4 6V1.74h1.14a3.21 3.21 0 0 1 2 .56 1.92 1.92 0 0 1 .72 1.6 1.89 1.89 0 0 1-.72 1.59 3.21 3.21 0 0 1-2 .55zm1.21-1.16h.16a1.63 1.63 0 0 0 .9-.24.87.87 0 0 0 .37-.8.85.85 0 0 0-.37-.79 1.63 1.63 0 0 0-.9-.24h-.16zM25.2.29h2.24L31 9.63h-3l-.31-.84H24.9l-.31.84h-2.94zm-1.46 8.22l.27-.7h4.62l.26.7h.39l-2.7-7.1h-.53l-2.7 7.1zm2.58-6.77l2.18 5.73h-4.37zm.63 5l-.63-1.64-.63 1.64zM31.19.29h2.45l2.57 3.6V.29h2.93v9.34h-2.46L34.11 6v3.63h-2.92zm1.66 8.22V2l4.62 6.47h.37V1.41h-.37v6.47l-4.62-6.47h-.36v7.1zm13.22-5.04a1.75 1.75 0 0 0-.63-.35A2.43 2.43 0 0 0 44.7 3a1.78 1.78 0 0 0-.74.15 1.74 1.74 0 0 0-.59.41 1.85 1.85 0 0 0-.38.62 2.21 2.21 0 0 0-.14.78 2.06 2.06 0 0 0 .15.79 2.12 2.12 0 0 0 .42.62 2.08 2.08 0 0 0 .63.41 1.9 1.9 0 0 0 .76.14 1.8 1.8 0 0 0 .87-.2 2.08 2.08 0 0 0 .67-.55h-.84v-2h3.6v3.15a5.29 5.29 0 0 1-.77 1 5.09 5.09 0 0 1-1 .8 4.59 4.59 0 0 1-1.2.52 5.07 5.07 0 0 1-3.24-.19 5.19 5.19 0 0 1-1.56-1 5.05 5.05 0 0 1-1.05-1.55 5 5 0 0 1-.38-1.9 5 5 0 0 1 1.36-3.5 4.8 4.8 0 0 1 1.52-1 4.55 4.55 0 0 1 1.88-.44A5.46 5.46 0 0 1 46 .22a5 5 0 0 1 1 .35 3.29 3.29 0 0 1 .77.49zm.14-1.81a2.19 2.19 0 0 0-.41-.14 3.61 3.61 0 0 0-.46-.1 3.84 3.84 0 0 0-2 .23 3.33 3.33 0 0 0-1.84 1.86A3.78 3.78 0 0 0 41.23 5a3.62 3.62 0 0 0 .28 1.46 3.29 3.29 0 0 0 .77 1.13 3.38 3.38 0 0 0 1.14.73 3.55 3.55 0 0 0 1.39.27 3.37 3.37 0 0 0 1.75-.46 3.59 3.59 0 0 0 1.27-1.21V5.05h-1.48v.33h1.12v1.4a3.29 3.29 0 0 1-1.13 1 3.15 3.15 0 0 1-1.53.37A3.2 3.2 0 0 1 43.56 8a3.16 3.16 0 0 1-1-.65 3.21 3.21 0 0 1-.69-1A3.26 3.26 0 0 1 41.59 5a3.51 3.51 0 0 1 .24-1.31 3.25 3.25 0 0 1 .68-1 2.84 2.84 0 0 1 1-.65 3.15 3.15 0 0 1 1.24-.24 2.44 2.44 0 0 1 .48.05 3 3 0 0 1 .39.08L46 2zM49.88.29h5.5v2.45h-2.52v1h2.48V6.1h-2.48v1.08h2.62v2.45h-5.6zm4.56 8.22v-.34h-2.8V5.1h2.66v-.33h-2.66v-3h2.8v-.36h-3.16v7.1z"/></g></g></svg>