<svg xmlns="http://www.w3.org/2000/svg" viewBox="0 0 468.971 468.971"><path d="M44.162 329.024c-17.14 17.14-17.14 45.029 0 62.169 8.57 8.57 19.828 12.855 31.085 12.855s22.515-4.285 31.084-12.855c17.14-17.14 17.14-45.029 0-62.169s-45.029-17.14-62.169 0zm51.563 51.563c-11.291 11.291-29.664 11.292-40.957 0-11.291-11.292-11.291-29.665 0-40.956 5.646-5.646 13.061-8.469 20.479-8.469 7.415 0 14.833 2.823 20.478 8.469 11.291 11.291 11.291 29.664 0 40.956zm318.758-51.563c-17.14-17.14-45.029-17.14-62.169 0-17.14 17.14-17.14 45.029 0 62.169 8.57 8.57 19.827 12.855 31.084 12.855s22.515-4.285 31.084-12.855c17.141-17.14 17.141-45.029.001-62.169zm-10.607 51.563c-11.292 11.291-29.665 11.292-40.956 0-11.292-11.292-11.292-29.665 0-40.956 5.646-5.646 13.061-8.469 20.478-8.469 7.415 0 14.833 2.823 20.478 8.469 11.292 11.291 11.292 29.664 0 40.956z"/><path d="M466.774 432.878l-25.125-25.125c11.008-13.409 16.996-30.067 16.996-47.645 0-20.099-7.827-38.995-22.039-53.207-27.549-27.549-71.318-29.226-100.846-5.038l-71.66-71.66L410.56 35.296a7.5 7.5 0 1 0-11.3-9.809L229.322 195.426 59.383 25.487a7.5 7.5 0 0 0-11.299 9.809L194.55 230.198l-71.664 71.664c-29.528-24.187-73.297-22.511-100.846 5.039C7.827 321.113 0 340.009 0 360.109s7.827 38.995 22.039 53.208c14.669 14.669 33.938 22.004 53.208 22.004 19.269 0 38.538-7.335 53.208-22.004 14.212-14.212 22.039-33.108 22.039-53.208 0-16.413-5.224-32.02-14.877-44.933l1.173-.593c13.102-6.629 27.789-10.132 42.474-10.132 7.253 0 14.5.841 21.54 2.5a7.504 7.504 0 0 0 7.716-2.794l20.804-27.683 20.805 27.686a7.497 7.497 0 0 0 7.713 2.795 94.215 94.215 0 0 1 64.014 7.63l1.171.593c-9.653 12.913-14.876 28.52-14.876 44.932 0 20.099 7.827 38.995 22.039 53.208 14.669 14.669 33.938 22.004 53.208 22.004 16.918 0 33.834-5.658 47.639-16.966l25.131 25.13c1.464 1.465 3.384 2.197 5.303 2.197s3.839-.732 5.303-2.197a7.5 7.5 0 0 0 0-10.608zm-352.462-33.704c-21.541 21.541-56.591 21.54-78.13 0C25.747 388.739 20 374.866 20 360.109c0-14.757 5.747-28.631 16.182-39.065 10.77-10.77 24.917-16.156 39.065-16.156 14.148 0 28.295 5.385 39.065 16.156 10.435 10.435 16.182 24.308 16.182 39.065 0 14.757-5.747 28.63-16.182 39.065zm220.444-287.97l-81.37 108.286-13.458-13.458 94.828-94.828zM199.399 291.325c-15.171-2.851-30.988-2.416-46.019 1.255l50.27-50.27 16.292 21.68-20.543 27.335zm79.954-1.863c-6.714 0-13.448.619-20.102 1.868L123.902 111.219l181.354 181.354a109.372 109.372 0 0 0-25.903-3.111zm64.98 109.712c-10.435-10.435-16.182-24.308-16.182-39.065 0-14.757 5.747-28.631 16.182-39.065 10.77-10.77 24.917-16.156 39.065-16.156s28.295 5.385 39.065 16.156c10.435 10.435 16.181 24.308 16.181 39.065 0 14.757-5.747 28.631-16.182 39.065-21.539 21.541-56.588 21.541-78.129 0z"/></svg>