<svg xmlns="http://www.w3.org/2000/svg" viewBox="0 0 272.16 57.48"><defs><style>.cls-1{fill:#ccc}.cls-2{fill:#fff}</style></defs><title>logoAsset 7</title><g id="Layer_2" data-name="Layer 2"><g id="Free_Sample" data-name="Free Sample"><path class="cls-1" d="M247.24 21.34l-1.58.85-.24-.93 2-1.07h1.05v9.11h-1.19zm5.22 7.09a5.16 5.16 0 0 0 1 0 3.46 3.46 0 0 0 1.9-.89 4 4 0 0 0 1.21-2.42h-.05a2.73 2.73 0 0 1-4.83-1.81A3.12 3.12 0 0 1 254.8 20c1.86 0 3 1.51 3 3.84a5.74 5.74 0 0 1-1.57 4.27 4.62 4.62 0 0 1-2.64 1.22 6.1 6.1 0 0 1-1.14.07zm.45-5.24a1.75 1.75 0 0 0 1.75 1.93 2 2 0 0 0 1.79-.95.8.8 0 0 0 .12-.45c0-1.55-.58-2.74-1.87-2.74-1.05.02-1.79.92-1.79 2.21zm5.91 3.81a2.59 2.59 0 0 1 1.8-2.43v-.07a2.23 2.23 0 0 1-1.44-2A2.55 2.55 0 0 1 262 20a2.35 2.35 0 0 1 2.65 2.24 2.31 2.31 0 0 1-1.5 2.13A2.53 2.53 0 0 1 265 26.8c0 1.59-1.36 2.65-3.1 2.65-1.9 0-3.08-1.13-3.08-2.45zm4.9-.05c0-1.11-.77-1.64-2-2a2 2 0 0 0-1.64 1.88 1.68 1.68 0 0 0 1.82 1.73 1.64 1.64 0 0 0 1.82-1.63zm-3.39-4.55c0 .91.69 1.4 1.74 1.68a1.8 1.8 0 0 0 1.38-1.66 1.41 1.41 0 0 0-1.54-1.48 1.45 1.45 0 0 0-1.58 1.44zm11.83 2.25c0 3.09-1.15 4.8-3.16 4.8-1.78 0-3-1.67-3-4.68s1.3-4.77 3.15-4.77 3.01 1.75 3.01 4.65zm-4.94.14c0 2.36.73 3.71 1.85 3.71s1.86-1.47 1.86-3.8-.57-3.7-1.85-3.7c-1.08 0-1.86 1.31-1.86 3.79z"/><path class="cls-2" d="M125.62 46.74a9 9 0 0 1 .72 1.38 3.86 3.86 0 0 1 .3 1.5 3.38 3.38 0 0 1-.36 1.47A3.77 3.77 0 0 1 125 52.5a23.2 23.2 0 0 1-7.62 3.84 30.42 30.42 0 0 1-8.38 1.14 39 39 0 0 1-9-1.08 63.14 63.14 0 0 1-8.91-2.82 65 65 0 0 1-8.31-4 74.78 74.78 0 0 1-7.2-4.68 14.31 14.31 0 0 1-5.46 1 16.1 16.1 0 0 1-4.74-.63A11.38 11.38 0 0 1 62 43.59a7.08 7.08 0 0 1-2-2.22 4.94 4.94 0 0 1-.69-2.43 3.76 3.76 0 0 1 .33-1.53 4.53 4.53 0 0 1 1-1.38 4.8 4.8 0 0 1 1.56-1 5.64 5.64 0 0 1 2.19-.39A11.75 11.75 0 0 1 69 35.85a28 28 0 0 1 6.45 4.47 8.57 8.57 0 0 0 2-2.73 8.71 8.71 0 0 0 .75-3.75 9.71 9.71 0 0 0-1-4.35 18.49 18.49 0 0 0-2.52-3.81q-1.53-1.8-3.27-3.48t-3.27-3.45A18.48 18.48 0 0 1 65.59 15a9.21 9.21 0 0 1-1-4.23 9.63 9.63 0 0 1 .93-4.14 10.44 10.44 0 0 1 2.61-3.45 13 13 0 0 1 4-2.34A13.69 13.69 0 0 1 77 0a13 13 0 0 1 4.56.72 9.25 9.25 0 0 1 3.18 1.92 7.9 7.9 0 0 1 1.89 2.73 8.2 8.2 0 0 1 .63 3.15 6.68 6.68 0 0 1-2 5 7.75 7.75 0 0 1-5.67 1.92 5.69 5.69 0 0 1-1-.09 2.25 2.25 0 0 1-.93-.39 2.13 2.13 0 0 1-.69-1 4.67 4.67 0 0 1-.27-1.74 4.74 4.74 0 0 1 .3-1.39q.18-.57.66-.57a2.68 2.68 0 0 1 1.35.36 2.38 2.38 0 0 0 1.17.36 3.15 3.15 0 0 0 2.64-1.25 4.48 4.48 0 0 0 1-2.8 4.38 4.38 0 0 0-1.23-3 5.22 5.22 0 0 0-4.05-1.37 6.72 6.72 0 0 0-2.73.54 6.9 6.9 0 0 0-2.21 1.46 6.64 6.64 0 0 0-1.41 2.09 6.38 6.38 0 0 0-.51 2.52 7.13 7.13 0 0 0 1 3.63 22.14 22.14 0 0 0 2.49 3.41q1.5 1.71 3.27 3.48a35.17 35.17 0 0 1 3.27 3.74 20.84 20.84 0 0 1 2.49 4.25 12.37 12.37 0 0 1 1 5 11.29 11.29 0 0 1-1.7 6.12 14.5 14.5 0 0 1-4.32 4.4 57.56 57.56 0 0 0 6.3 3.69A60.07 60.07 0 0 0 92.8 50a58.52 58.52 0 0 0 7.86 2.16 40.32 40.32 0 0 0 8 .81 29.77 29.77 0 0 0 9.18-1.41 19.28 19.28 0 0 0 7.78-4.82zm-55.74-3.66a4.55 4.55 0 0 0 1.41-.39 12.09 12.09 0 0 0 1.35-.69 21 21 0 0 0-5.07-3.51 9.19 9.19 0 0 0-3.45-.93 2.24 2.24 0 0 0-1.71.51 1.65 1.65 0 0 0-.41 1.11 2.74 2.74 0 0 0 .42 1.38 4.62 4.62 0 0 0 1.2 1.32 6.66 6.66 0 0 0 1.92 1 8 8 0 0 0 2.58.39 9.16 9.16 0 0 0 1.76-.19z"/><path class="cls-2" d="M113.8 33.72a1.49 1.49 0 0 1 .66-.18 3.31 3.31 0 0 1 .66.12 23.3 23.3 0 0 1-1 4.35 15.7 15.7 0 0 1-1.86 3.81 10.76 10.76 0 0 1-2.58 2.7 5.38 5.38 0 0 1-3.18 1 6.55 6.55 0 0 1-4.2-1.38 5.25 5.25 0 0 1-1.74-4.38 18.75 18.75 0 0 1 .39-3.51q.39-2 .87-4.11t.87-4a16.57 16.57 0 0 0 .39-3.18 3 3 0 0 0-.27-1.41 1 1 0 0 0-1-.51 2.79 2.79 0 0 0-1.59.63 10.48 10.48 0 0 0-1.77 1.68 23.57 23.57 0 0 0-1.77 2.37 30.76 30.76 0 0 0-1.59 2.7q-1 4.38-1.86 8.16t-1.33 6.36a6.12 6.12 0 0 1-1.47.39 11.48 11.48 0 0 1-1.83.15 6.74 6.74 0 0 1-1.32-.12 1.72 1.72 0 0 1-.9-.42q.3-2.64 1-6.45t1.65-8.1q.93-4.29 2-8.7t2-8.19q1-3.78 1.77-6.57A37.5 37.5 0 0 1 96 3a14.35 14.35 0 0 1 2.13-.45 16.34 16.34 0 0 1 2.19-.15 9 9 0 0 1 1.53.12 4.65 4.65 0 0 1 1.29.42 14.67 14.67 0 0 0-1.11 2.7q-.69 2-1.56 4.92T98.65 17q-1 3.54-2 7.26a13 13 0 0 1 2.64-2.61 5.28 5.28 0 0 1 3.18-1.05 6.06 6.06 0 0 1 2.58.48 4.32 4.32 0 0 1 1.65 1.32 5.06 5.06 0 0 1 .87 2 11.23 11.23 0 0 1 .24 2.38 19.74 19.74 0 0 1-.36 3.85c-.24 1.2-.5 2.34-.78 3.43l-.78 3a10.54 10.54 0 0 0-.36 2.56 6.28 6.28 0 0 0 .12 1.17 3.86 3.86 0 0 0 .42 1.18 2.82 2.82 0 0 0 .78.9 1.85 1.85 0 0 0 1.14.36 2.82 2.82 0 0 0 2-1.11 13.43 13.43 0 0 0 1.86-2.64 19.06 19.06 0 0 0 1.38-3.15 8.7 8.7 0 0 0 .57-2.61z"/><path class="cls-2" d="M126.88 33.78a1.69 1.69 0 0 1 .81-.24 3.73 3.73 0 0 1 .63.12 20.66 20.66 0 0 1-1.08 4.34 17.07 17.07 0 0 1-2 3.81 10.69 10.69 0 0 1-2.71 2.7 6 6 0 0 1-3.35 1c-2.16 0-3.7-.62-4.6-1.86s-1.36-3.24-1.36-6a52 52 0 0 1 .64-7.56 75.86 75.86 0 0 1 1.85-8.82 7.18 7.18 0 0 1 1.76-.48 13.33 13.33 0 0 1 2.17-.18 8.1 8.1 0 0 1 1.59.15 3 3 0 0 1 1.23.51 136.105 136.105 0 0 0-2.82 10.3c-.36 1.56-.64 3.07-.84 4.39a22.88 22.88 0 0 0-.3 3.31 5.89 5.89 0 0 0 .6 2.65 1.9 1.9 0 0 0 1.78 1.2 2.93 2.93 0 0 0 2.12-1.03 13.55 13.55 0 0 0 1.9-2.64 19 19 0 0 0 1.43-3.12 8 8 0 0 0 .55-2.55zM120.22 16a3.55 3.55 0 0 1-2.43-.87 2.79 2.79 0 0 1-1-2.19 3 3 0 0 1 1-2.28 3.48 3.48 0 0 1 2.43-.9 3.3 3.3 0 0 1 2.34.9 3 3 0 0 1 1 2.28 2.83 2.83 0 0 1-1 2.19 3.36 3.36 0 0 1-2.34.87z"/><path class="cls-2" d="M152.56 33.72a3.16 3.16 0 0 1 .88-.18 2 2 0 0 1 .56.06 22.56 22.56 0 0 1-1 4.4 15.7 15.7 0 0 1-1.86 3.81 11 11 0 0 1-2.6 2.73 5.3 5.3 0 0 1-3.19 1 7.37 7.37 0 0 1-2.17-.33 5.79 5.79 0 0 1-1.93-1 4.8 4.8 0 0 1-1.35-1.71 5.65 5.65 0 0 1-.51-2.49 17.7 17.7 0 0 1 .36-3.12q.36-1.92.81-4t.84-4.14a19 19 0 0 0 .39-3.48q0-2.22-1.14-2.22a2.94 2.94 0 0 0-1.74.75 12.41 12.41 0 0 0-1.91 1.91 22.26 22.26 0 0 0-1.86 2.67q-.9 1.5-1.62 3-.78 3.24-1.47 6.72t-1.33 6.9a6.12 6.12 0 0 1-1.47.39 11.85 11.85 0 0 1-1.89.15 6.29 6.29 0 0 1-1.29-.12 1.69 1.69 0 0 1-.87-.42c.28-2.63.61-5.23 1-7.78s.77-4.94 1.17-7.15.82-4.2 1.26-6a26.58 26.58 0 0 1 1.37-4.21 12.79 12.79 0 0 1 2-.45 14.62 14.62 0 0 1 2.07-.15 7.93 7.93 0 0 1 3.12.54 21.53 21.53 0 0 0-1.92 4.86 12.34 12.34 0 0 1 2.73-2.82 5.5 5.5 0 0 1 3.3-1.14 6.27 6.27 0 0 1 2.61.48 4.54 4.54 0 0 1 1.68 1.26 4.41 4.41 0 0 1 .87 1.76 8.5 8.5 0 0 1 .24 2 16.73 16.73 0 0 1-.36 3.32c-.24 1.17-.51 2.35-.81 3.53s-.57 2.32-.81 3.44a14.63 14.63 0 0 0-.36 3 6.15 6.15 0 0 0 .51 2.45 1.88 1.88 0 0 0 1.89 1.2 2.83 2.83 0 0 0 2-1.14 13.34 13.34 0 0 0 1.83-2.67 21.31 21.31 0 0 0 1.41-3.06 8.43 8.43 0 0 0 .56-2.55z"/><path class="cls-2" d="M165.7 34.32a2 2 0 0 1 .78-.18 3.31 3.31 0 0 1 .66.12 21.36 21.36 0 0 1-1 4.26 14.17 14.17 0 0 1-1.83 3.58 9.22 9.22 0 0 1-2.61 2.46 6.22 6.22 0 0 1-3.3.92q-3.54 0-4.83-2.16a12.75 12.75 0 0 1-1.29-6.42 48.34 48.34 0 0 1 .51-6.69q.51-3.63 1.23-7.23h-1.5a2.66 2.66 0 0 1-.84-.12.45.45 0 0 1-.36-.47c0-.78.18-1.28.54-1.52a2.29 2.29 0 0 1 1.26-.35h1.44q.78-3.5 1.65-6.42a45.51 45.51 0 0 1 1.59-4.62 14.35 14.35 0 0 1 2.13-.45A16.34 16.34 0 0 1 162.1 9a9.11 9.11 0 0 1 1.5.12 5.51 5.51 0 0 1 1.38.42 21.38 21.38 0 0 0-1.92 4.28c-.72 2-1.42 4.29-2.1 6.82h1.87a5.08 5.08 0 0 1 1.29.15c.38.09.57.3.57.61a1.45 1.45 0 0 1-.66 1.44 3.59 3.59 0 0 1-1.56.32 11.17 11.17 0 0 1-1.17-.06 10.09 10.09 0 0 0-1-.06c-.4 1.44-.76 2.89-1.08 4.37s-.6 2.9-.84 4.27-.43 2.67-.57 3.86a27.8 27.8 0 0 0-.21 3.17 7.21 7.21 0 0 0 .63 3.2 2 2 0 0 0 1.89 1.29 2.94 2.94 0 0 0 2-1 10.56 10.56 0 0 0 1.8-2.46 17.12 17.12 0 0 0 1.26-2.94 8.37 8.37 0 0 0 .52-2.48z"/><path class="cls-2" d="M179.08 33.78a1.69 1.69 0 0 1 .81-.24 3.73 3.73 0 0 1 .63.12 20.09 20.09 0 0 1-1.09 4.34 16.64 16.64 0 0 1-2 3.81 10.69 10.69 0 0 1-2.71 2.7 6 6 0 0 1-3.35 1c-2.17 0-3.7-.62-4.61-1.86s-1.35-3.24-1.35-6a52 52 0 0 1 .64-7.56A75.86 75.86 0 0 1 168 21.3a7.18 7.18 0 0 1 1.76-.48 13.24 13.24 0 0 1 2.17-.18 8.1 8.1 0 0 1 1.59.15 3 3 0 0 1 1.23.51 136.105 136.105 0 0 0-2.82 10.3c-.36 1.56-.64 3.07-.84 4.39a22.88 22.88 0 0 0-.3 3.31 6 6 0 0 0 .59 2.65 1.92 1.92 0 0 0 1.79 1.2 2.93 2.93 0 0 0 2.06-1.11 13.55 13.55 0 0 0 1.9-2.64 19 19 0 0 0 1.43-3.12 8 8 0 0 0 .52-2.5zM172.42 16a3.55 3.55 0 0 1-2.43-.87A2.79 2.79 0 0 1 169 13a3 3 0 0 1 1-2.28 3.48 3.48 0 0 1 2.43-.9 3.3 3.3 0 0 1 2.34.9 3 3 0 0 1 1 2.28 2.83 2.83 0 0 1-1 2.19 3.36 3.36 0 0 1-2.35.81z"/><path class="cls-2" d="M206.5 33.78a1.93 1.93 0 0 1 .84-.24 3.61 3.61 0 0 1 .6.12 20.75 20.75 0 0 1-1.08 4.34 17.42 17.42 0 0 1-1.92 3.81 10.43 10.43 0 0 1-2.64 2.73 5.63 5.63 0 0 1-3.3 1 6 6 0 0 1-3.81-1.08 5.33 5.33 0 0 1-1.83-2.88 11.19 11.19 0 0 1-3.72 2.91 9.69 9.69 0 0 1-4.26 1 5.48 5.48 0 0 1-5.16-2.94 9.84 9.84 0 0 1-1-2.94 17.44 17.44 0 0 1-.3-3.18 21 21 0 0 1 .84-6 17.76 17.76 0 0 1 2.31-5 12 12 0 0 1 3.51-3.45 8.93 8.93 0 0 1 4.38-1.41 11.13 11.13 0 0 1 2.58.33 11.36 11.36 0 0 1 2.64 1l.24-.72a10.16 10.16 0 0 1 1.71-.42 12.58 12.58 0 0 1 2.13-.18 8.9 8.9 0 0 1 1.68.15 3 3 0 0 1 1.26.51q-.84 2.52-1.56 5.1t-1.26 4.92q-.54 2.34-.84 4.32a23 23 0 0 0-.3 3.36 6.45 6.45 0 0 0 .63 3 2 2 0 0 0 1.83 1.23 2.92 2.92 0 0 0 2.07-1.14 12.65 12.65 0 0 0 1.86-2.67 21.31 21.31 0 0 0 1.37-3.09 8.35 8.35 0 0 0 .5-2.49zm-13.38 4.8v-1.32a50.19 50.19 0 0 1 .45-6.24 66.61 66.61 0 0 1 1.35-7.26 3.2 3.2 0 0 0-.72-.06 6.43 6.43 0 0 0-3.63 1.14 10.56 10.56 0 0 0-3 3.15 17.76 17.76 0 0 0-2.07 4.74 21.21 21.21 0 0 0-.78 5.85 9.34 9.34 0 0 0 .51 3.24 2 2 0 0 0 2 1.38 5 5 0 0 0 3-1.35 14.37 14.37 0 0 0 2.89-3.27z"/><path class="cls-1" d="M4.89 24.87H1.22v3.4h4.09v1H0v-9.42h5.1v1H1.22v3h3.67zm1.83 2.94a4.27 4.27 0 0 0 2.18.62c1.25 0 2-.66 2-1.61s-.5-1.39-1.78-1.88c-1.54-.55-2.49-1.35-2.49-2.68s1.2-2.56 3.03-2.56a4.27 4.27 0 0 1 2.09.46l-.34 1a3.74 3.74 0 0 0-1.79-.45c-1.29 0-1.78.77-1.78 1.41 0 .89.57 1.32 1.88 1.83 1.59.61 2.41 1.38 2.41 2.77s-1.08 2.72-3.31 2.72a4.86 4.86 0 0 1-2.41-.61zm8.86-6.92h-2.87v-1h7v1h-2.89v8.41h-1.24z"/><path class="cls-2" d="M30.99 24.69h17v2h-17zm187 0h17v2h-17z"/></g></g></svg>