<svg xmlns="http://www.w3.org/2000/svg" viewBox="0 0 512 512" width="512" height="512"><path d="M371.769 176.364l30.47-30.47-21.71-25.265h-52.305l-21.71 25.265 30.47 30.47a157.521 157.521 0 0 0-80.982 33.507 157.521 157.521 0 0 0-80.982-33.507l30.47-30.47-21.71-25.265h-52.305l-21.71 25.265 30.47 30.47C61.471 185.049 0 251.988 0 333.024c0 86.914 70.71 157.625 157.625 157.625A157.55 157.55 0 0 0 256 456.177a157.553 157.553 0 0 0 98.375 34.472C441.29 490.649 512 419.938 512 333.024c0-81.036-61.471-147.975-140.231-156.66zm-44.532-31.254l7.97-9.275h38.337l7.969 9.275-27.138 27.138-27.138-27.138zm-196.751 0l7.97-9.275h38.337l7.969 9.275-27.138 27.138-27.138-27.138zm27.139 330.331c-78.529 0-142.417-63.888-142.417-142.417s63.888-142.417 142.417-142.417c34.337 0 67.503 12.392 93.387 34.894a143.4 143.4 0 0 1 21.618 23.522c17.933 24.508 27.412 53.555 27.412 84.002 0 27.573-7.775 54-22.563 76.946-.192-.192-.376-.39-.566-.583a112.87 112.87 0 0 1-2.465-2.574c-.357-.386-.705-.781-1.055-1.172a106.166 106.166 0 0 1-1.955-2.233 104.98 104.98 0 0 1-2.915-3.588c-.337-.432-.675-.863-1.005-1.3a103.733 103.733 0 0 1-1.921-2.636c-.195-.275-.396-.545-.589-.823 10.887-18.81 16.619-40.153 16.619-62.037 0-21.925-5.759-43.301-16.685-62.137l.061-.096-2.58-4.072a124.4 124.4 0 0 0-24.246-27.966l-6.234-5.332-.161.22a124.048 124.048 0 0 0-74.156-24.62c-68.375 0-124.002 55.628-124.002 124.002s55.627 124.001 124.002 124.001c26.853 0 52.947-8.733 74.315-24.737.095.118.196.231.291.348.539.661 1.092 1.311 1.641 1.964.423.501.841 1.007 1.269 1.503.586.677 1.185 1.342 1.782 2.01.409.457.812.92 1.226 1.372.656.716 1.326 1.418 1.995 2.122.37.389.734.787 1.108 1.172.815.841 1.646 1.666 2.48 2.488.228.225.449.456.677.68a142.364 142.364 0 0 1-86.785 29.494zM289.077 246.04c18.767-14.095 41.689-21.81 65.298-21.81 59.989 0 108.794 48.805 108.794 108.794s-48.805 108.792-108.794 108.792c-23.608 0-46.531-7.715-65.298-21.81 17.142-25.819 26.172-55.735 26.172-86.984 0-31.247-9.029-61.164-26.172-86.982zM256 379.489a108.592 108.592 0 0 1-10.418-46.465c0-16.18 3.584-32.012 10.418-46.465a108.592 108.592 0 0 1 10.418 46.465c0 16.18-3.584 32.011-10.418 46.465zM222.923 246.04c-17.142 25.819-26.172 55.735-26.172 86.984 0 31.248 9.029 61.165 26.172 86.984-18.767 14.095-41.69 21.81-65.298 21.81-59.989 0-108.794-48.804-108.794-108.793S97.636 224.23 157.625 224.23c23.609 0 46.531 7.715 65.298 21.81zm131.452 229.401c-34.337 0-67.503-12.392-93.387-34.894a143.404 143.404 0 0 1-21.618-23.522c-17.933-24.508-27.412-53.555-27.412-84.001 0-27.573 7.775-54.001 22.562-76.946.194.194.38.394.572.589a108.34 108.34 0 0 1 2.46 2.569c.355.384.701.778 1.05 1.167.664.739 1.32 1.485 1.964 2.243a112.315 112.315 0 0 1 2.917 3.59c.334.428.669.855.997 1.289.655.867 1.292 1.748 1.921 2.635.196.277.398.548.591.827-10.887 18.81-16.619 40.153-16.619 62.038 0 21.925 5.759 43.3 16.685 62.136l-.062.096 2.581 4.072a124.467 124.467 0 0 0 24.245 27.966l6.234 5.332.161-.221a124.048 124.048 0 0 0 74.156 24.62c68.375 0 124.002-55.626 124.002-124.001s-55.626-124.001-124.002-124.001a124.042 124.042 0 0 0-74.315 24.738c-.095-.118-.196-.231-.291-.348-.538-.66-1.089-1.309-1.638-1.96-.424-.503-.844-1.011-1.274-1.508-.58-.67-1.173-1.329-1.764-1.989-.416-.464-.825-.935-1.246-1.394-.642-.701-1.298-1.387-1.951-2.075-.385-.406-.763-.818-1.153-1.221a166.563 166.563 0 0 0-2.373-2.382c-.262-.259-.516-.525-.78-.783a142.362 142.362 0 0 1 86.786-29.493c78.529 0 142.417 63.888 142.417 142.417.001 78.528-63.887 142.415-142.416 142.415zM248.396 21.351h15.208v47.344h-15.208zm53.417 56.766l19.875-42.969 13.802 6.384L315.615 84.5zM176.5 41.536l13.802-6.384 19.875 42.968-13.802 6.384z" fill="#FFF"/></svg>