<svg xmlns="http://www.w3.org/2000/svg" width="100" height="100" viewBox="0 0 100 100"><title>yellowArtboard 1</title><g fill="#f2b809"><path d="M95.895 43.639L79.209 14.034a14.359 14.359 0 0 0-11.771-6.959l-33.984-.353a14.282 14.282 0 0 0-11.911 6.714L4.247 42.689a14.281 14.281 0 0 0-.142 13.672l16.687 29.606a14.363 14.363 0 0 0 11.77 6.959l33.984.353a14.279 14.279 0 0 0 11.911-6.714l17.3-29.254a14.278 14.278 0 0 0 .138-13.672zM26.047 16.1a9.073 9.073 0 0 1 7.353-4.147l4.892.047 29.093.3a9.163 9.163 0 0 1 7.266 4.3l14.343 25.451 2.343 4.156a9.072 9.072 0 0 1-.087 8.441L81.011 71.965 73.953 83.9a8.635 8.635 0 0 1-3.311 3.057 8.479 8.479 0 0 1-4.042 1.088L32.617 87.7a9.151 9.151 0 0 1-7.266-4.3L8.664 53.793a9.085 9.085 0 0 1 .087-8.441l6.779-11.465z"/><path d="M46.653 43.929c-.012.99.01 1.94.081 2.821a1.45 1.45 0 0 0 .7 1.124l4.75 2.805a1.431 1.431 0 0 0 1.089.155c.076-.019 1.885-.879 2.744-1.371 1.189 1.188 5.055 3.968 5.055 3.968s3.268-6.464 2.583-9.994a19.463 19.463 0 0 0 4.154-6.779c1.6-4.741.533-9.835-.7-14.638a1.437 1.437 0 0 0-1.749-1.034c-5.008 1.287-9.78 2.744-13.166 6.435a19.557 19.557 0 0 0-3.936 6.907c-3.421 1.106-7.511 7.084-7.511 7.084s4.296 2.047 5.906 2.517zM9.8 49.638a6.386 6.386 0 0 0 .722 3.109L27.2 82.354a7.052 7.052 0 0 0 5.435 3.214l33.982.35a6.357 6.357 0 0 0 3.007-.831 6.554 6.554 0 0 0 2.492-2.268l6.065-10.258c-7.379 1.032-16.5-1.568-25.406-5.6-10.057-4.657-3.24-12.926-1.843-15.288l-3.419-2.022c-2.908 6.175-7.544 10.865-13.635 6.3-7.971-6.205-14.4-13.251-17.355-19.575l-5.941 10.059a6.427 6.427 0 0 0-.782 3.203zm60.353 27.39a1.5 1.5 0 1 1-2.049.526 1.5 1.5 0 0 1 2.044-.526zm-9.367 3.72a1.5 1.5 0 1 1-2.05.527 1.5 1.5 0 0 1 2.045-.528zM58.273 72.6a1.5 1.5 0 1 1-2.048.525 1.494 1.494 0 0 1 2.048-.525zM47.5 71.156a1.5 1.5 0 1 1-2.049.526 1.5 1.5 0 0 1 2.049-.526zm-3.205 7.169a2.385 2.385 0 1 1-3.267.838 2.383 2.383 0 0 1 3.265-.838zm-10.97 3.763a2.027 2.027 0 1 1-.714-2.776 2.027 2.027 0 0 1 .712 2.776zm6.626-19.171a1.548 1.548 0 1 1-2.12.546 1.549 1.549 0 0 1 2.117-.546zm-7.362 5.749a1.717 1.717 0 1 1-2.351.6 1.716 1.716 0 0 1 2.348-.6zM22.4 65.373a1.085 1.085 0 1 1-1.487.383 1.086 1.086 0 0 1 1.487-.383zm2.32-11.991a2.027 2.027 0 1 1-2.776.713 2.027 2.027 0 0 1 2.776-.713zm-9.959-5.015a1.255 1.255 0 1 1-1.719.441 1.254 1.254 0 0 1 1.72-.441z"/></g></svg>