<svg xmlns="http://www.w3.org/2000/svg" width="100" height="100" viewBox="0 0 100 100"><title>2Artboard 1</title><g fill="#fff"><path d="M86.269 21.167L56.838 4.175a14.359 14.359 0 0 0-13.674 0L13.731 21.167A14.282 14.282 0 0 0 6.9 33.008v33.985a14.281 14.281 0 0 0 6.836 11.841l29.427 16.992a14.363 14.363 0 0 0 13.673 0l29.433-16.992A14.279 14.279 0 0 0 93.1 66.993V33.008a14.278 14.278 0 0 0-6.831-11.841zM12.127 33.008a9.073 9.073 0 0 1 4.22-7.311l4.237-2.446L45.78 8.7a9.163 9.163 0 0 1 8.442 0l25.3 14.606 4.13 2.394a9.072 9.072 0 0 1 4.221 7.311v33.982a8.635 8.635 0 0 1-1.294 4.317 8.479 8.479 0 0 1-2.927 2.99l-29.43 17a9.151 9.151 0 0 1-8.442 0l-29.432-17a9.085 9.085 0 0 1-4.221-7.31V33.008z"/><path d="M44.03 46.477c.494.858 1 1.665 1.506 2.387a1.45 1.45 0 0 0 1.174.611h5.517a1.431 1.431 0 0 0 1.016-.421c.056-.055 1.175-1.716 1.665-2.576 1.628.417 6.371.843 6.371.843s-.479-7.23-2.865-9.921a19.463 19.463 0 0 0 .126-7.949c-1.033-4.9-4.547-8.737-8.054-12.244a1.437 1.437 0 0 0-2.032 0c-3.656 3.657-7.022 7.34-8.059 12.24a19.557 19.557 0 0 0 .127 7.949c-2.382 2.693-2.86 9.92-2.86 9.92s4.738-.424 6.368-.839zM15.207 70.15a6.386 6.386 0 0 0 2.2 2.309l29.437 16.993a7.052 7.052 0 0 0 6.314 0l29.43-16.994a6.357 6.357 0 0 0 2.166-2.246 6.554 6.554 0 0 0 .99-3.221V55.076c-5.827 4.644-15.005 7.05-24.718 8.112C50 64.3 51.66 53.71 51.66 50.966h-3.973c.639 6.8-.964 13.193-8.531 12.361-10.02-1.285-19.14-4.077-24.9-8.017v11.683a6.427 6.427 0 0 0 .951 3.157zM81.1 63.011a1.5 1.5 0 1 1-1.5 1.5 1.5 1.5 0 0 1 1.5-1.5zm-6.17 7.969a1.5 1.5 0 1 1-1.5 1.5 1.5 1.5 0 0 1 1.498-1.5zm-6.307-5.741a1.5 1.5 0 1 1-1.5 1.494 1.494 1.494 0 0 1 1.498-1.494zm-10.009 4.246a1.5 1.5 0 1 1-1.5 1.5 1.5 1.5 0 0 1 1.5-1.5zm.889 7.8a2.385 2.385 0 1 1-2.385 2.384 2.383 2.383 0 0 1 2.382-2.382zm-7.528 8.823a2.027 2.027 0 1 1-2.027-2.027 2.027 2.027 0 0 1 2.027 2.028zm-4.054-19.873a1.548 1.548 0 1 1-1.547 1.549 1.549 1.549 0 0 1 1.547-1.549zm-3.411 8.7a1.717 1.717 0 1 1-1.716 1.716 1.716 1.716 0 0 1 1.716-1.721zm-10.441 2.343a1.085 1.085 0 1 1-1.085 1.086 1.086 1.086 0 0 1 1.085-1.086zm-4.108-11.5a2.027 2.027 0 1 1-2.027 2.022 2.027 2.027 0 0 1 2.027-2.023zm-11.125.751a1.255 1.255 0 1 1-1.255 1.255 1.254 1.254 0 0 1 1.255-1.255z"/></g></svg>